<?xml version="1.0" standalone="no"?>
<!DOCTYPE svg PUBLIC "-//W3C//DTD SVG 20010904//EN"
 "http://www.w3.org/TR/2001/REC-SVG-20010904/DTD/svg10.dtd">
<svg version="1.0" xmlns="http://www.w3.org/2000/svg"
 width="538.000000pt" height="538.000000pt" viewBox="0 0 538.000000 538.000000"
 preserveAspectRatio="xMidYMid meet">
<metadata>
Created by potrace 1.14, written by Peter Selinger 2001-2017
</metadata>
<g transform="translate(0.000000,538.000000) scale(0.100000,-0.100000)"
fill="#000000" stroke="none">
<path d="M1690 3185 l0 -705 35 0 35 0 0 665 0 665 1090 0 1090 0 0 -500 0
-500 35 0 35 0 0 540 0 540 -1160 0 -1160 0 0 -705z"/>
<path d="M1940 3340 l0 -300 60 0 60 0 0 180 c0 99 3 180 6 180 3 0 43 -30 90
-66 53 -42 88 -63 96 -58 7 5 50 37 96 72 l82 63 0 -185 0 -186 55 0 55 0 0
300 c0 165 -2 300 -5 300 -3 0 -53 -37 -113 -83 -59 -46 -124 -96 -144 -111
l-37 -27 -143 110 c-79 61 -146 111 -150 111 -5 0 -8 -135 -8 -300z"/>
<path d="M2738 3350 c-82 -159 -148 -294 -148 -299 0 -7 25 -11 63 -11 l62 0
85 170 c46 94 87 170 91 170 3 0 45 -76 93 -170 l87 -170 65 0 c36 0 64 4 62
8 -18 46 -301 592 -306 592 -4 0 -73 -131 -154 -290z"/>
<path d="M3357 3626 c-87 -32 -159 -105 -188 -194 -17 -52 -7 -179 19 -228 31
-60 114 -131 175 -149 37 -11 98 -15 224 -15 l173 0 0 60 0 60 -177 0 c-170 0
-178 1 -219 25 -55 32 -100 117 -91 171 14 82 66 142 146 164 20 5 105 10 189
10 l152 0 0 55 0 55 -182 0 c-128 -1 -195 -5 -221 -14z"/>
<path d="M5220 3070 c0 -6 16 -18 35 -27 39 -18 51 -47 40 -90 -23 -95 -141
-161 -350 -198 -93 -17 -519 -33 -549 -22 -14 6 -10 15 24 61 30 40 41 62 38
83 -6 53 -35 41 -124 -51 l-83 -86 -173 11 c-248 16 -393 3 -484 -44 -36 -19
-84 -72 -84 -93 0 -23 26 -16 44 11 20 31 95 69 164 84 56 12 280 13 423 2
l86 -6 -75 -105 c-41 -58 -102 -152 -136 -209 -75 -129 -149 -211 -221 -246
-49 -24 -56 -25 -82 -13 -24 12 -28 19 -27 55 1 53 41 134 99 201 56 63 78 68
73 15 -2 -28 1 -38 13 -41 25 -5 34 59 15 97 -44 85 -179 14 -244 -129 -17
-37 -52 -81 -107 -136 -95 -93 -173 -138 -244 -138 -45 -1 -46 0 -49 34 -3 26
8 57 44 127 41 80 47 96 38 120 -7 20 -16 28 -34 28 -19 0 -34 -14 -64 -60
-22 -33 -87 -108 -145 -167 -80 -81 -121 -114 -165 -134 -54 -25 -60 -26 -71
-10 -30 40 37 204 179 441 65 107 68 111 134 145 122 63 292 255 292 331 0 62
-65 63 -155 4 -71 -48 -170 -156 -248 -272 -72 -108 -73 -108 -242 -108 -101
0 -175 14 -175 34 0 3 17 16 38 28 58 33 138 109 188 178 52 73 69 115 60 150
-9 36 -65 34 -132 -4 -65 -38 -193 -173 -272 -288 l-62 -91 -63 -11 c-171 -30
-305 3 -322 79 -9 42 -35 39 -35 -3 0 -37 23 -67 73 -94 26 -15 57 -18 178
-18 l145 0 -15 -27 c-18 -32 -24 -34 -41 -13 -7 8 -26 15 -42 15 -74 0 -145
-66 -167 -157 -29 -111 -239 -283 -348 -283 -37 0 -66 36 -60 75 9 56 49 136
104 209 32 42 53 79 51 91 -4 28 -53 32 -87 7 l-27 -20 -27 24 c-52 45 -63 41
-284 -107 -467 -312 -1077 -627 -1425 -735 -43 -13 -58 -22 -58 -36 0 -10 4
-18 9 -18 46 0 456 167 656 267 243 122 593 324 788 455 84 57 87 58 80 31
-32 -114 48 -176 131 -102 l35 30 -10 -33 c-13 -47 -11 -85 6 -118 21 -41 48
-52 118 -51 88 1 166 41 266 137 77 73 82 76 99 60 21 -18 54 -21 83 -6 17 10
18 8 8 -17 -35 -93 -30 -201 11 -223 66 -35 164 16 304 160 96 98 109 108 122
95 18 -18 75 -20 91 -4 8 8 6 -6 -3 -37 -21 -68 -21 -157 0 -189 14 -21 24
-25 64 -25 65 0 139 44 232 139 l75 76 -3 -43 c-5 -56 16 -88 69 -102 87 -24
211 29 320 136 l56 55 11 -39 c27 -91 143 -109 237 -37 25 19 45 33 45 31 0
-1 -10 -29 -21 -62 -29 -80 -31 -194 -5 -223 25 -28 86 -28 145 1 78 37 409
388 398 421 -9 27 -30 10 -108 -85 -121 -150 -245 -270 -312 -302 -62 -31 -77
-28 -77 13 0 106 159 404 358 673 l72 96 222 0 c359 1 545 34 671 120 91 64
123 192 60 242 -27 21 -83 28 -83 10z m-2366 -228 c-32 -54 -163 -188 -212
-216 l-34 -18 50 68 c105 143 211 251 220 224 2 -6 -9 -32 -24 -58z m556 63
c0 -15 -37 -76 -79 -128 -41 -53 -170 -162 -179 -152 -2 2 22 39 54 82 93 124
204 231 204 198z m-804 -371 c56 -37 196 -53 306 -35 41 7 46 6 38 -8 -24 -42
-25 -42 -59 -25 -27 14 -40 15 -71 5 -54 -16 -114 -85 -129 -149 -26 -106
-272 -342 -357 -342 -31 0 -35 21 -19 84 21 80 158 345 237 459 23 32 22 32
54 11z m-246 -140 c0 -46 -97 -174 -131 -174 -17 0 -1 49 34 105 52 82 97 114
97 69z m530 11 c0 -28 -35 -91 -74 -132 -66 -71 -81 -53 -35 39 38 75 109 136
109 93z m-1134 -46 c15 -24 -117 -179 -153 -179 -36 0 15 100 81 158 38 33 60
40 72 21z"/>
<path d="M3940 2545 l0 -125 35 0 35 0 0 125 0 125 -35 0 -35 0 0 -125z"/>
<path d="M3317 2463 c-8 -7 -10 -93 -3 -93 20 0 56 23 61 39 12 39 -32 80 -58
54z"/>
<path d="M1683 1838 c4 -66 7 -172 7 -235 l0 -113 1160 0 1160 0 0 150 0 150
-35 0 -35 0 0 -110 0 -110 -1090 0 -1090 0 0 179 c0 99 -3 186 -6 195 -4 10
-18 16 -42 16 l-35 0 6 -122z"/>
</g>
</svg>
